#define dwleft2_width 32
#define dwleft2_height 32
static char dwleft2_bits[] = {
   0x00, 0x00, 0x00, 0x00, 0x00, 0x00, 0x00, 0x00, 0x00, 0x00, 0x00, 0x00,
   0x00, 0x80, 0x3f, 0x00, 0x00, 0xe0, 0x40, 0x3e, 0x00, 0x90, 0x38, 0x41,
   0x00, 0x20, 0x89, 0x38, 0x00, 0x60, 0x72, 0x04, 0x00, 0x90, 0x1c, 0x04,
   0x00, 0x08, 0x00, 0x04, 0xc0, 0x0c, 0x00, 0x04, 0x46, 0x07, 0x00, 0x04,
   0x5a, 0x04, 0x00, 0x04, 0x72, 0x08, 0x00, 0x02, 0x22, 0x30, 0x00, 0x01,
   0x04, 0x40, 0x80, 0x00, 0x04, 0x40, 0x60, 0x00, 0x04, 0x40, 0x10, 0x00,
   0x04, 0x00, 0x08, 0x00, 0x15, 0x71, 0x08, 0x00, 0x16, 0x09, 0x04, 0x00,
   0x14, 0x81, 0x04, 0x00, 0x04, 0x40, 0x02, 0x00, 0x2c, 0x30, 0x01, 0x00,
   0x18, 0x8f, 0x00, 0x00, 0xe8, 0x43, 0x00, 0x00, 0x4c, 0x22, 0x00, 0x00,
   0x24, 0x22, 0x00, 0x00, 0x24, 0x12, 0x00, 0x00, 0x18, 0x0e, 0x00, 0x00,
   0x00, 0x00, 0x00, 0x00, 0x00, 0x00, 0x00, 0x00};
