#define petal_cursor_width 9
#define petal_cursor_height 12
#define petal_cursor_x_hot 1
#define petal_cursor_y_hot 11
static unsigned char petal_cursor_bits[] = {
   0x00, 0x00, 0x6c, 0x00, 0xee, 0x00, 0xfe, 0x00, 0xfe, 0x00, 0xfc, 0x00,
   0x7c, 0x00, 0x78, 0x00, 0x38, 0x00, 0x1c, 0x00, 0x04, 0x00, 0x02, 0x00};
