#define down1_dog_width 32
#define down1_dog_height 32
static char down1_dog_bits[] = {
   0x00, 0x00, 0x00, 0x00, 0x00, 0x70, 0x00, 0x00, 0x00, 0x88, 0x00, 0x00,
   0x00, 0x18, 0x01, 0x00, 0x00, 0x20, 0x02, 0x00, 0x00, 0x40, 0x04, 0x00,
   0x00, 0x70, 0x1c, 0x00, 0x00, 0x0c, 0x60, 0x00, 0x00, 0x02, 0x80, 0x00,
   0x00, 0x01, 0x00, 0x01, 0x80, 0x00, 0x00, 0x02, 0x80, 0x00, 0x00, 0x02,
   0x80, 0x02, 0x80, 0x02, 0x70, 0x02, 0x80, 0x1c, 0x78, 0x01, 0x00, 0x3d,
   0xf8, 0xe0, 0x0f, 0x3e, 0xf8, 0x1f, 0xf0, 0x3f, 0xf0, 0x0f, 0xe0, 0x1f,
   0xe0, 0x07, 0xc0, 0x0f, 0xc0, 0x03, 0x80, 0x07, 0x20, 0x43, 0x84, 0x09,
   0xa0, 0x43, 0x84, 0x0b, 0xe0, 0x02, 0x80, 0x0e, 0x80, 0x84, 0x43, 0x02,
   0x00, 0x2f, 0xe9, 0x01, 0x00, 0xcc, 0x66, 0x00, 0x00, 0x70, 0x1c, 0x00,
   0x00, 0x40, 0x05, 0x00, 0x00, 0x80, 0x03, 0x00, 0x00, 0x00, 0x00, 0x00,
   0x00, 0x00, 0x00, 0x00, 0x00, 0x00, 0x00, 0x00};
