#define dwleft2_dog_width 32
#define dwleft2_dog_height 32
static char dwleft2_dog_bits[] = {
   0x00, 0x00, 0x0e, 0x00, 0x00, 0x00, 0x11, 0x00, 0x00, 0x00, 0x22, 0x38,
   0x00, 0x00, 0x25, 0x6c, 0x00, 0x80, 0x24, 0x44, 0x00, 0x40, 0x22, 0x42,
   0x00, 0xc0, 0xa3, 0x31, 0x00, 0x60, 0x70, 0x18, 0x00, 0x18, 0x18, 0x08,
   0x00, 0x04, 0x00, 0x08, 0x00, 0x02, 0x00, 0x08, 0x00, 0x81, 0x01, 0x04,
   0x1c, 0xc1, 0x03, 0x04, 0x9e, 0xe0, 0x03, 0x02, 0xee, 0xe7, 0x83, 0x01,
   0x17, 0xf8, 0x63, 0x00, 0x0b, 0xf8, 0x21, 0x00, 0x06, 0xf8, 0x11, 0x00,
   0x04, 0xfc, 0x10, 0x00, 0x94, 0xfc, 0x08, 0x00, 0x92, 0x38, 0x04, 0x00,
   0x02, 0x00, 0x04, 0x00, 0x72, 0x40, 0x02, 0x00, 0x2c, 0x32, 0x01, 0x00,
   0x58, 0x89, 0x00, 0x00, 0x88, 0x4c, 0x00, 0x00, 0xac, 0x22, 0x00, 0x00,
   0x52, 0x23, 0x00, 0x00, 0xe1, 0x10, 0x00, 0x00, 0xab, 0x15, 0x00, 0x00,
   0x1e, 0x0f, 0x00, 0x00, 0x00, 0x00, 0x00, 0x00};
