#define left2_dog_width 32
#define left2_dog_height 32
static char left2_dog_bits[] = {
 0x00,0x00,0x00,0x00,0x00,0x00,0x00,0x00,0x00,0x00,0x00,0x00,0x00,0x00,0x00,
 0x00,0x00,0x00,0x00,0x00,0x00,0x00,0x00,0x30,0x00,0x00,0x00,0x48,0xe0,0x03,
 0x00,0x48,0x10,0x76,0x00,0x24,0x08,0xff,0x00,0x22,0x2c,0xff,0xf0,0x11,0x23,
 0xff,0x0e,0x0a,0x01,0x7e,0x01,0x08,0x01,0xdc,0x00,0x10,0x12,0x00,0x00,0x10,
 0x8c,0x00,0x00,0x10,0xca,0x00,0x00,0x10,0x3a,0x01,0x00,0x20,0x8a,0x07,0x00,
 0x20,0x84,0x00,0x40,0xc0,0xc0,0x00,0xc0,0x84,0x20,0x18,0x70,0x8f,0x1c,0xf4,
 0x9f,0x97,0x02,0x3b,0x00,0xe8,0xc6,0x04,0x00,0x70,0x3c,0x03,0x00,0x00,0x00,
 0x00,0x00,0x00,0x00,0x00,0x00,0x00,0x00,0x00,0x00,0x00,0x00,0x00,0x00,0x00,
 0x00,0x00,0x00,0x00,0x00,0x00,0x00,0x00};
