#define ltogi2_dog_width 32
#define ltogi2_dog_height 32
static char ltogi2_dog_bits[] = {
 0x00,0x00,0x00,0x00,0x00,0x00,0x00,0x00,0x00,0x00,0x00,0x00,0x02,0x00,0x00,
 0x00,0x04,0x00,0x00,0x00,0x08,0x00,0x00,0x00,0xc2,0x03,0x00,0x18,0x20,0x06,
 0x00,0x24,0x10,0x0c,0x00,0x44,0x0e,0x1e,0x00,0x88,0x22,0x1f,0x00,0x90,0x02,
 0x3e,0x00,0x90,0x02,0x7e,0xff,0x91,0x04,0xfe,0x00,0x8a,0x08,0x7f,0x00,0x44,
 0x10,0x7f,0x00,0x20,0x08,0x3f,0x00,0x18,0x64,0x1e,0x10,0x08,0x98,0x0c,0x08,
 0x08,0x00,0x01,0x08,0x08,0x00,0x05,0x08,0x08,0x00,0x47,0x10,0x08,0xe0,0xc4,
 0x7f,0x04,0x10,0x22,0x88,0x04,0x08,0x11,0x87,0x04,0xe8,0x88,0x60,0x04,0x10,
 0x84,0x18,0x04,0x50,0x02,0x57,0x04,0xe0,0x01,0xe0,0x03,0x00,0x00,0x00,0x00,
 0x00,0x00,0x00,0x00,0x00,0x00,0x00,0x00};
