#define up1_dog_width 32
#define up1_dog_height 32
static char up1_dog_bits[] = {
   0x00, 0xe0, 0x03, 0x00, 0x00, 0x18, 0x0c, 0x00, 0x00, 0x04, 0x10, 0x00,
   0x00, 0x23, 0x62, 0x00, 0x00, 0x21, 0x42, 0x00, 0x00, 0x01, 0x40, 0x00,
   0x80, 0x04, 0x90, 0x00, 0x80, 0x0e, 0xb8, 0x00, 0x80, 0x1f, 0xfc, 0x00,
   0xc0, 0xcf, 0xf9, 0x01, 0xf0, 0x0f, 0xf8, 0x07, 0xf8, 0x07, 0xf0, 0x0f,
   0xf8, 0x07, 0xf0, 0x0f, 0xf8, 0x03, 0xe0, 0x0f, 0xf0, 0x05, 0xd0, 0x07,
   0x20, 0x00, 0x00, 0x03, 0x20, 0x00, 0x00, 0x02, 0x20, 0x00, 0x00, 0x02,
   0x40, 0x00, 0x00, 0x01, 0x40, 0x00, 0x00, 0x01, 0x40, 0x00, 0x00, 0x01,
   0x40, 0x00, 0x00, 0x01, 0x80, 0x00, 0x80, 0x00, 0x00, 0x23, 0x62, 0x00,
   0x00, 0x3c, 0x1e, 0x00, 0x00, 0x20, 0x02, 0x00, 0x00, 0x10, 0x02, 0x00,
   0x00, 0x08, 0x02, 0x00, 0x00, 0x08, 0x01, 0x00, 0x00, 0xf0, 0x00, 0x00,
   0x00, 0x00, 0x00, 0x00, 0x00, 0x00, 0x00, 0x00};
