#define upright2_dog_width 32
#define upright2_dog_height 32
static char upright2_dog_bits[] = {
   0x00, 0x00, 0x00, 0x00, 0x00, 0x00, 0x00, 0x00, 0x00, 0x00, 0xff, 0x00,
   0x00, 0x80, 0x01, 0x01, 0x00, 0x60, 0x00, 0x02, 0x00, 0x7e, 0x18, 0x04,
   0x00, 0x7f, 0x3c, 0x04, 0x80, 0x7f, 0x3e, 0x74, 0x80, 0x3f, 0x3e, 0x8c,
   0x00, 0x3f, 0x3f, 0x8f, 0x00, 0x98, 0x3f, 0x83, 0x30, 0x84, 0xff, 0x61,
   0x48, 0x82, 0x1f, 0x38, 0xc8, 0x01, 0x1f, 0x0e, 0x88, 0x01, 0x0e, 0x02,
   0x10, 0x06, 0x80, 0x01, 0x30, 0x00, 0x40, 0x00, 0x50, 0x00, 0x20, 0x00,
   0x88, 0x01, 0x10, 0x00, 0x04, 0x00, 0x08, 0x00, 0x04, 0x01, 0x08, 0x00,
   0x82, 0x00, 0x08, 0x00, 0xc2, 0x00, 0x08, 0x00, 0xf1, 0x00, 0x04, 0x00,
   0x91, 0x00, 0x04, 0x00, 0x09, 0x11, 0x02, 0x00, 0x09, 0xf1, 0x01, 0x00,
   0x07, 0x09, 0x00, 0x00, 0x83, 0x08, 0x00, 0x00, 0x80, 0x09, 0x00, 0x00,
   0x80, 0x0a, 0x00, 0x00, 0x00, 0x07, 0x00, 0x00};
