#define down2_tora_width 32
#define down2_tora_height 32
static char down2_tora_bits[] = {
   0x00, 0x8c, 0x61, 0x00, 0x00, 0x5a, 0xb2, 0x00, 0x00, 0xd2, 0x93, 0x00,
   0x00, 0x52, 0x92, 0x00, 0x00, 0xf9, 0x3b, 0x01, 0x00, 0x65, 0x46, 0x01,
   0x00, 0xc1, 0x07, 0x01, 0x00, 0x31, 0x19, 0x01, 0x00, 0xc9, 0x27, 0x01,
   0x00, 0x31, 0x19, 0x01, 0x00, 0xca, 0xa7, 0x00, 0x00, 0x32, 0x99, 0x00,
   0x00, 0xb9, 0x3b, 0x01, 0x00, 0x79, 0x3d, 0x01, 0x00, 0x4d, 0x65, 0x01,
   0x00, 0x85, 0x42, 0x01, 0x00, 0x83, 0x83, 0x01, 0x00, 0xc3, 0x87, 0x01,
   0x60, 0x03, 0x81, 0x0d, 0x80, 0x83, 0x83, 0x03, 0x00, 0x23, 0x89, 0x01,
   0x00, 0x23, 0x88, 0x01, 0x00, 0x22, 0x88, 0x00, 0x00, 0x06, 0xc1, 0x00,
   0x00, 0x0a, 0xa0, 0x00, 0x00, 0x7e, 0xfc, 0x00, 0x00, 0xc2, 0x87, 0x00,
   0x00, 0x3c, 0x78, 0x00, 0x00, 0x24, 0x48, 0x00, 0x00, 0x34, 0x58, 0x00,
   0x00, 0x18, 0x30, 0x00, 0x00, 0x00, 0x00, 0x00};
