#define dtogi1_tora_width 32
#define dtogi1_tora_height 32
static char dtogi1_tora_bits[] = {
   0x00, 0x00, 0x00, 0x00, 0x00, 0xc0, 0x00, 0x00, 0x00, 0x20, 0x01, 0x00,
   0x00, 0x58, 0x03, 0x00, 0x00, 0xa0, 0x04, 0x00, 0x00, 0xc0, 0x07, 0x00,
   0x00, 0x78, 0x3c, 0x00, 0x00, 0x04, 0x41, 0x00, 0x00, 0xe2, 0x8f, 0x00,
   0x00, 0x19, 0x31, 0x01, 0x80, 0xe4, 0x4f, 0x02, 0x80, 0x10, 0x11, 0x02,
   0x80, 0xb8, 0x3b, 0x02, 0xc0, 0x78, 0x3d, 0x06, 0x30, 0x4d, 0x65, 0x19,
   0x08, 0x84, 0x42, 0x20, 0xf8, 0x83, 0x83, 0x3f, 0x00, 0xc2, 0x87, 0x00,
   0x00, 0x02, 0x81, 0x00, 0x00, 0x82, 0x83, 0x00, 0x00, 0x22, 0x89, 0x00,
   0x00, 0x22, 0x88, 0x00, 0x00, 0x26, 0x88, 0x00, 0x00, 0x06, 0x41, 0x00,
   0x00, 0x0a, 0x60, 0x00, 0x00, 0x76, 0x5c, 0x00, 0x00, 0xda, 0x57, 0x00,
   0x00, 0x56, 0x54, 0x00, 0x00, 0x5a, 0x54, 0x00, 0x00, 0x54, 0x54, 0x00,
   0x00, 0x54, 0x14, 0x00, 0x00, 0x00, 0x00, 0x00};
