#define dwright1_tora_width 32
#define dwright1_tora_height 32
static char dwright1_tora_bits[] = {
   0x00, 0x00, 0x00, 0x00, 0x00, 0x00, 0x00, 0x00, 0x00, 0x07, 0x00, 0x00,
   0xe0, 0x3d, 0x00, 0x00, 0x50, 0xe5, 0x03, 0x00, 0xe0, 0xcf, 0x04, 0x00,
   0x80, 0x23, 0x0b, 0x00, 0xc0, 0x90, 0x15, 0x00, 0x60, 0x48, 0xec, 0x18,
   0x20, 0x24, 0xb3, 0x14, 0x20, 0x88, 0x90, 0x12, 0x20, 0x50, 0x88, 0x11,
   0x20, 0x20, 0x04, 0x10, 0x20, 0x3e, 0x02, 0x10, 0x40, 0x20, 0x02, 0x10,
   0x40, 0x3e, 0x42, 0x24, 0x40, 0x20, 0x42, 0x24, 0x40, 0x1e, 0x4f, 0xe4,
   0x40, 0x10, 0x00, 0x20, 0x40, 0x1e, 0x00, 0x24, 0x80, 0x88, 0x00, 0x20,
   0x00, 0x8d, 0x04, 0x16, 0x00, 0xd1, 0xf8, 0x0b, 0x00, 0x52, 0x29, 0x02,
   0x00, 0x72, 0xd6, 0x01, 0x00, 0xa4, 0x6f, 0x00, 0x00, 0xec, 0x31, 0x00,
   0x00, 0x38, 0x00, 0x00, 0x00, 0x00, 0x00, 0x00, 0x00, 0x00, 0x00, 0x00,
   0x00, 0x00, 0x00, 0x00, 0x00, 0x00, 0x00, 0x00};
