#define jare2_tora_width 32
#define jare2_tora_height 32
static char jare2_tora_bits[] = {
   0x00, 0x00, 0x00, 0x00, 0x00, 0x00, 0x00, 0x00, 0x00, 0x30, 0x00, 0x00,
   0x00, 0xf0, 0x00, 0x00, 0x00, 0xb0, 0x01, 0x00, 0x00, 0x30, 0x02, 0x00,
   0xe0, 0x11, 0x0c, 0x00, 0xe0, 0xb7, 0x10, 0x00, 0x60, 0x78, 0x20, 0x00,
   0x40, 0x30, 0x41, 0x00, 0x40, 0x50, 0x42, 0x00, 0x40, 0x00, 0x50, 0x00,
   0x40, 0x08, 0x48, 0x00, 0x80, 0x10, 0x41, 0x00, 0x80, 0x00, 0x3c, 0x00,
   0x00, 0x39, 0x32, 0x00, 0x00, 0x02, 0x4c, 0x00, 0x00, 0x7c, 0x7c, 0x00,
   0x00, 0x40, 0x44, 0x00, 0x00, 0x20, 0x46, 0x00, 0x00, 0x10, 0x78, 0x00,
   0x00, 0x08, 0x30, 0x00, 0x00, 0x0b, 0xa4, 0x01, 0x80, 0x0c, 0x63, 0x03,
   0xc0, 0x1b, 0x51, 0x05, 0x40, 0x10, 0x51, 0x3d, 0xc0, 0x11, 0x05, 0x57,
   0x60, 0x90, 0x03, 0x3c, 0xe0, 0xff, 0xfe, 0x0f, 0x00, 0x00, 0x00, 0x00,
   0x00, 0x00, 0x00, 0x00, 0x00, 0x00, 0x00, 0x00};
