#define left1_tora_width 32
#define left1_tora_height 32
static char left1_tora_bits[] = {
   0x00, 0x00, 0x00, 0x00, 0x00, 0x00, 0x00, 0x00, 0x00, 0x00, 0x00, 0x00,
   0x00, 0x00, 0x0e, 0x00, 0x00, 0x80, 0x31, 0x00, 0x00, 0x60, 0xce, 0x00,
   0x00, 0x90, 0x11, 0x01, 0x00, 0x38, 0x26, 0x01, 0x0c, 0xc4, 0x48, 0x02,
   0x1c, 0x1c, 0x01, 0x04, 0x7c, 0x62, 0x00, 0x0c, 0x88, 0x83, 0x01, 0x12,
   0x88, 0x84, 0x00, 0x2b, 0x08, 0x89, 0x1f, 0x65, 0x04, 0x42, 0x00, 0x59,
   0x12, 0xc0, 0x07, 0x92, 0x12, 0x40, 0x00, 0xa4, 0x12, 0x87, 0x07, 0xc2,
   0xc3, 0x81, 0x00, 0x01, 0x01, 0x40, 0x03, 0x01, 0x02, 0xc0, 0x9e, 0x01,
   0x04, 0x23, 0x91, 0x01, 0xf8, 0x9e, 0x4e, 0x02, 0x00, 0x74, 0xca, 0x02,
   0x00, 0xe8, 0x2f, 0x03, 0x00, 0x90, 0x38, 0x00, 0x00, 0xe0, 0x18, 0x00,
   0x00, 0x00, 0x00, 0x00, 0x00, 0x00, 0x00, 0x00, 0x00, 0x00, 0x00, 0x00,
   0x00, 0x00, 0x00, 0x00, 0x00, 0x00, 0x00, 0x00};
