#define left2_tora_width 32
#define left2_tora_height 32
static char left2_tora_bits[] = {
   0x00, 0x00, 0x00, 0x00, 0x00, 0x00, 0x00, 0x00, 0x00, 0x00, 0x00, 0x00,
   0x20, 0x00, 0x00, 0xe0, 0x60, 0x00, 0x00, 0xf0, 0xe0, 0x00, 0x00, 0x88,
   0xe0, 0x01, 0x00, 0x5c, 0x20, 0x03, 0x00, 0x22, 0x30, 0x0c, 0x00, 0x17,
   0x08, 0x14, 0xc0, 0x08, 0x24, 0x34, 0x38, 0x09, 0x24, 0x32, 0x66, 0x0a,
   0x24, 0x50, 0x8d, 0x14, 0x02, 0xc8, 0x10, 0x11, 0xc2, 0x03, 0x23, 0x12,
   0x02, 0x40, 0x44, 0x10, 0x04, 0x80, 0x08, 0x10, 0x78, 0x00, 0x00, 0x20,
   0x80, 0x07, 0x08, 0x22, 0x80, 0x00, 0xb0, 0xd1, 0xc0, 0x01, 0xc0, 0x8d,
   0x60, 0x1a, 0x78, 0x9e, 0x90, 0xf4, 0x87, 0xa7, 0x28, 0x3b, 0x00, 0xc8,
   0xc4, 0x04, 0x00, 0x30, 0x38, 0x03, 0x00, 0x00, 0x00, 0x00, 0x00, 0x00,
   0x00, 0x00, 0x00, 0x00, 0x00, 0x00, 0x00, 0x00, 0x00, 0x00, 0x00, 0x00,
   0x00, 0x00, 0x00, 0x00, 0x00, 0x00, 0x00, 0x00};
