#define ltogi1_tora_width 32
#define ltogi1_tora_height 32
static char ltogi1_tora_bits[] = {
   0xc0, 0x00, 0x00, 0x00, 0xc0, 0x01, 0x00, 0x00, 0xc0, 0x03, 0x00, 0x00,
   0x43, 0x04, 0x00, 0x00, 0x37, 0x18, 0x00, 0x00, 0x0f, 0x28, 0x00, 0x00,
   0x07, 0x64, 0x00, 0x00, 0x27, 0x52, 0x00, 0x00, 0x25, 0x48, 0x00, 0x00,
   0x2d, 0x64, 0x00, 0x00, 0x35, 0x50, 0x00, 0x00, 0xd3, 0xe8, 0x0f, 0x00,
   0x0b, 0x20, 0x39, 0x00, 0x0d, 0x10, 0x49, 0x00, 0x38, 0xc0, 0xc9, 0x00,
   0x70, 0x20, 0x44, 0x01, 0x40, 0x10, 0x24, 0x02, 0x40, 0x08, 0x22, 0x03,
   0x80, 0x79, 0x11, 0x05, 0x00, 0x0f, 0x88, 0x0c, 0x00, 0x7c, 0x80, 0x10,
   0x00, 0x14, 0x40, 0x28, 0x00, 0x28, 0x03, 0x66, 0x00, 0xfe, 0x01, 0x9d,
   0x00, 0xad, 0xe0, 0x70, 0x00, 0xad, 0x10, 0x00, 0x00, 0xfe, 0x1f, 0x00,
   0x00, 0x00, 0x00, 0x00, 0x00, 0x00, 0x00, 0x00, 0x00, 0x00, 0x00, 0x00,
   0x00, 0x00, 0x00, 0x00, 0x00, 0x00, 0x00, 0x00};
