#define up1_tora_width 32
#define up1_tora_height 32
static char up1_tora_bits[] = {
   0x00, 0xc0, 0x03, 0x00, 0x00, 0x3e, 0x7c, 0x00, 0x00, 0x08, 0x10, 0x00,
   0x00, 0x26, 0x64, 0x00, 0x00, 0x22, 0x44, 0x00, 0x00, 0x22, 0x44, 0x00,
   0x00, 0x81, 0x80, 0x00, 0x00, 0xdf, 0xfb, 0x00, 0x00, 0x01, 0x81, 0x00,
   0x00, 0x22, 0x45, 0x00, 0x00, 0x9e, 0x78, 0x00, 0x00, 0x86, 0x60, 0x00,
   0x80, 0xdf, 0xfb, 0x01, 0xc0, 0x04, 0x21, 0x03, 0x40, 0x0a, 0x51, 0x02,
   0xc0, 0xf2, 0x4f, 0x03, 0x40, 0x85, 0xa0, 0x02, 0x40, 0xf8, 0x1f, 0x02,
   0x80, 0x04, 0x21, 0x01, 0x80, 0xf8, 0x1f, 0x01, 0x80, 0x80, 0x00, 0x01,
   0x80, 0xf8, 0x1f, 0x01, 0x00, 0x01, 0x81, 0x00, 0x00, 0xe6, 0x66, 0x00,
   0x00, 0x78, 0x1e, 0x00, 0x00, 0xc0, 0x03, 0x00, 0x00, 0x40, 0x02, 0x00,
   0x00, 0xc0, 0x03, 0x00, 0x00, 0x40, 0x02, 0x00, 0x00, 0x80, 0x01, 0x00,
   0x00, 0x00, 0x00, 0x00, 0x00, 0x00, 0x00, 0x00};
