#define up2_tora_width 32
#define up2_tora_height 32
static char up2_tora_bits[] = {
   0x00, 0xc0, 0x03, 0x00, 0x80, 0x3f, 0xfc, 0x01, 0x40, 0x0b, 0xd0, 0x02,
   0x40, 0x26, 0x64, 0x02, 0xc0, 0x23, 0xc4, 0x03, 0x40, 0x22, 0x44, 0x02,
   0xc0, 0x01, 0x81, 0x03, 0x40, 0xdf, 0xfb, 0x02, 0xc0, 0x81, 0x80, 0x03,
   0x40, 0xa2, 0x45, 0x02, 0x80, 0x1e, 0x79, 0x01, 0x80, 0xc0, 0x03, 0x01,
   0x80, 0x80, 0x00, 0x01, 0x80, 0xf8, 0x1e, 0x01, 0x00, 0x01, 0x81, 0x00,
   0x00, 0xe1, 0x87, 0x00, 0x00, 0x83, 0xc1, 0x00, 0x00, 0x61, 0x86, 0x00,
   0x80, 0xcc, 0x33, 0x01, 0x80, 0x70, 0x0e, 0x01, 0x80, 0xcc, 0x13, 0x01,
   0x80, 0x70, 0x0e, 0x01, 0x80, 0xc3, 0xc3, 0x01, 0x80, 0x70, 0x0e, 0x01,
   0x80, 0xc3, 0xc3, 0x01, 0x00, 0x41, 0x82, 0x00, 0x00, 0x21, 0x84, 0x00,
   0x00, 0x11, 0x88, 0x00, 0x00, 0x09, 0x90, 0x00, 0x00, 0x06, 0x60, 0x00,
   0x00, 0x00, 0x00, 0x00, 0x00, 0x00, 0x00, 0x00};
