#define awake_bsd_width 32
#define awake_bsd_height 32
static unsigned char awake_bsd_bits[] = {
   0x00, 0x86, 0x30, 0x00, 0x08, 0x85, 0x50, 0x10, 0x90, 0x02, 0xa0, 0x08,
   0x40, 0x02, 0x20, 0x01, 0x40, 0xfa, 0x2f, 0x01, 0x40, 0x04, 0x10, 0x01,
   0x40, 0x30, 0x06, 0x01, 0x4c, 0x48, 0x09, 0x31, 0x80, 0x88, 0x88, 0x00,
   0x80, 0xc4, 0x91, 0x00, 0x00, 0xe5, 0x53, 0x00, 0x00, 0xe5, 0x53, 0x00,
   0x00, 0x45, 0x51, 0x08, 0x90, 0x38, 0x8e, 0x10, 0x88, 0xc0, 0x81, 0x00,
   0x80, 0x04, 0x90, 0x00, 0x00, 0x19, 0x4c, 0x00, 0x08, 0xe2, 0x23, 0x00,
   0x12, 0x0c, 0x18, 0x00, 0x14, 0x1c, 0x18, 0x00, 0x09, 0x02, 0x20, 0x00,
   0x16, 0x01, 0x40, 0x00, 0xa0, 0x00, 0x80, 0x00, 0x40, 0x08, 0x08, 0x01,
   0xc0, 0x04, 0x10, 0x01, 0x40, 0x06, 0x30, 0x01, 0x80, 0x07, 0xd0, 0x00,
   0x00, 0x04, 0x10, 0x00, 0x80, 0x87, 0xf0, 0x10, 0x40, 0x40, 0x01, 0x23,
   0x40, 0x40, 0x01, 0x7d, 0x80, 0x3f, 0xfe, 0x20};
