#define down2_bsd_width 32
#define down2_bsd_height 32
static unsigned char down2_bsd_bits[] = {
   0x00, 0x06, 0x30, 0x00, 0x00, 0x05, 0x50, 0x00, 0x80, 0x02, 0xa0, 0x00,
   0x40, 0x02, 0x20, 0x01, 0x40, 0xfa, 0x2f, 0x01, 0x40, 0x04, 0x10, 0x01,
   0x40, 0x00, 0x00, 0x01, 0x40, 0x30, 0x06, 0x01, 0x80, 0x48, 0x89, 0x00,
   0x80, 0x88, 0x88, 0x00, 0x00, 0x85, 0x50, 0x00, 0x00, 0xe5, 0x53, 0x00,
   0x00, 0xe5, 0x53, 0x00, 0x00, 0x65, 0x53, 0x00, 0x80, 0x38, 0x8e, 0x00,
   0x80, 0xc4, 0x91, 0x00, 0x00, 0x19, 0x4c, 0x00, 0x00, 0xe2, 0x23, 0x00,
   0x00, 0x0c, 0x18, 0x00, 0x00, 0x02, 0x20, 0x00, 0x00, 0x11, 0x40, 0x00,
   0x00, 0x49, 0x80, 0x00, 0x80, 0x28, 0x08, 0x01, 0x80, 0x90, 0x18, 0x01,
   0x80, 0x68, 0xf0, 0x00, 0x80, 0x04, 0x10, 0x00, 0x80, 0x08, 0x10, 0x00,
   0x00, 0x07, 0x10, 0x00, 0x80, 0xe2, 0x10, 0x00, 0x40, 0x1c, 0x21, 0x00,
   0x00, 0x00, 0x21, 0x00, 0x00, 0x00, 0x1e, 0x00};
