#define dwleft1_bsd_width 32
#define dwleft1_bsd_height 32
static unsigned char dwleft1_bsd_bits[] = {
   0x00, 0x30, 0x00, 0x00, 0x00, 0x18, 0xc0, 0x00, 0x00, 0x14, 0x40, 0x01,
   0x00, 0x12, 0x80, 0x02, 0x00, 0xe2, 0x8f, 0x04, 0x00, 0x02, 0xb0, 0x04,
   0x00, 0xd9, 0x60, 0x04, 0x00, 0x26, 0x01, 0x04, 0x00, 0x22, 0x02, 0x04,
   0x00, 0x12, 0x02, 0x02, 0x00, 0x39, 0x02, 0x01, 0x00, 0x3d, 0x82, 0x00,
   0x80, 0x32, 0x81, 0x00, 0x80, 0xe2, 0x80, 0x00, 0x90, 0x1c, 0x40, 0x00,
   0x24, 0x01, 0x41, 0x00, 0x28, 0xfa, 0x20, 0x00, 0x12, 0x04, 0x10, 0x00,
   0x2c, 0x78, 0x08, 0x00, 0x40, 0x10, 0x08, 0x00, 0x80, 0x08, 0x10, 0x00,
   0x00, 0x0f, 0x20, 0x00, 0x80, 0x04, 0x40, 0x08, 0x80, 0x04, 0x80, 0x10,
   0x00, 0x07, 0x08, 0x3d, 0x00, 0x04, 0x10, 0x13, 0x00, 0x04, 0x90, 0x08,
   0x00, 0x44, 0x60, 0x00, 0x00, 0x48, 0x10, 0x00, 0x00, 0x28, 0x10, 0x00,
   0x00, 0x30, 0x08, 0x00, 0x00, 0xe0, 0x07, 0x00};
