#define dwleft2_bsd_width 32
#define dwleft2_bsd_height 32
static unsigned char dwleft2_bsd_bits[] = {
   0x00, 0x30, 0x00, 0x00, 0x00, 0x18, 0xc0, 0x00, 0x00, 0x14, 0x40, 0x01,
   0x00, 0x12, 0x80, 0x02, 0x00, 0xe2, 0x8f, 0x04, 0x00, 0x02, 0xb0, 0x04,
   0x00, 0xd9, 0x60, 0x04, 0x00, 0x26, 0x01, 0x04, 0x00, 0x22, 0x02, 0x04,
   0x00, 0x12, 0x02, 0x02, 0x00, 0x39, 0x02, 0x01, 0x00, 0x3d, 0x82, 0x00,
   0x80, 0x32, 0x81, 0x00, 0x80, 0xe2, 0x80, 0x00, 0x80, 0x1c, 0x40, 0x00,
   0x00, 0x01, 0x41, 0x00, 0x00, 0xfa, 0x20, 0x00, 0x00, 0x04, 0x10, 0x00,
   0x00, 0x78, 0x08, 0x00, 0x00, 0x10, 0x08, 0x1c, 0x00, 0x08, 0x10, 0x18,
   0x00, 0x04, 0x20, 0x14, 0x00, 0x04, 0x44, 0x04, 0x18, 0x04, 0x43, 0x02,
   0x20, 0x87, 0xe0, 0x01, 0xfc, 0x84, 0xd0, 0x00, 0x20, 0x82, 0x48, 0x00,
   0x18, 0x02, 0x47, 0x00, 0x00, 0x01, 0x40, 0x00, 0x00, 0x81, 0x43, 0x00,
   0x00, 0x61, 0x3c, 0x00, 0x00, 0x1e, 0x00, 0x00};
