#define dwright2_bsd_width 32
#define dwright2_bsd_height 32
static char dwright2_bsd_bits[] = {
 0x00,0x00,0x0c,0x00,0x00,0x03,0x18,0x00,0x80,0x02,0x28,0x00,0x40,0x01,0x48,
 0x00,0x20,0xf1,0x47,0x00,0x20,0x0d,0x40,0x00,0x20,0x06,0x9b,0x00,0x20,0x80,
 0x64,0x00,0x20,0x40,0x44,0x00,0x40,0x40,0x48,0x00,0x80,0x40,0x9c,0x00,0x00,
 0x41,0xbc,0x00,0x00,0x81,0x4c,0x01,0x00,0x01,0x47,0x01,0x00,0x02,0x38,0x01,
 0x00,0x82,0x80,0x00,0x00,0x04,0x5f,0x00,0x00,0x08,0x20,0x00,0x00,0x10,0x1e,
 0x00,0x38,0x10,0x08,0x00,0x18,0x08,0x10,0x00,0x28,0x04,0x20,0x00,0x20,0x22,
 0x20,0x00,0x40,0xc2,0x20,0x18,0x80,0x07,0xe1,0x04,0x00,0x0b,0x21,0x3f,0x00,
 0x12,0x41,0x04,0x00,0xe2,0x40,0x18,0x00,0x02,0x80,0x00,0x00,0xc2,0x81,0x00,
 0x00,0x3c,0x86,0x00,0x00,0x00,0x78,0x00};
