#define jare2_bsd_width 32
#define jare2_bsd_height 32
static unsigned char jare2_bsd_bits[] = {
   0x00, 0x30, 0x00, 0x00, 0x00, 0x18, 0xc0, 0x00, 0x00, 0x14, 0x40, 0x01,
   0x00, 0x12, 0x80, 0x02, 0x00, 0xe2, 0x8f, 0x04, 0x00, 0x02, 0x90, 0x04,
   0x00, 0xd9, 0x60, 0x04, 0x00, 0x26, 0x01, 0x04, 0x00, 0x22, 0x02, 0x04,
   0x00, 0x12, 0x02, 0x02, 0x00, 0x39, 0x02, 0x01, 0x00, 0x3d, 0x82, 0x00,
   0x80, 0x32, 0x82, 0x00, 0x80, 0xe2, 0x81, 0x00, 0x80, 0x1c, 0x80, 0x00,
   0x00, 0x01, 0x41, 0x00, 0x00, 0xfa, 0x20, 0x00, 0x00, 0x04, 0x10, 0x00,
   0x80, 0x38, 0x08, 0x00, 0x20, 0x21, 0x10, 0x00, 0x40, 0x11, 0x20, 0x00,
   0x90, 0x0c, 0x20, 0x10, 0x60, 0x03, 0x20, 0x38, 0x00, 0x8d, 0x21, 0x54,
   0x00, 0x71, 0x30, 0x10, 0x00, 0x3e, 0x28, 0x10, 0x00, 0x48, 0x64, 0x10,
   0x00, 0xc8, 0xe3, 0x10, 0x00, 0x86, 0xa0, 0x09, 0x00, 0x41, 0x40, 0x07,
   0x00, 0x41, 0x40, 0x00, 0x00, 0xbe, 0x3f, 0x00};
