#define kaki2_bsd_width 32
#define kaki2_bsd_height 32
static unsigned char kaki2_bsd_bits[] = {
   0x00, 0x80, 0xe3, 0x00, 0x00, 0x40, 0x42, 0x01, 0x00, 0x20, 0x41, 0x02,
   0x00, 0x20, 0x41, 0x04, 0x00, 0x90, 0x3f, 0x04, 0x00, 0x10, 0x10, 0x04,
   0x00, 0xd0, 0x00, 0x02, 0x00, 0x28, 0x01, 0x02, 0x00, 0x28, 0x02, 0x05,
   0x00, 0x28, 0x02, 0x04, 0x00, 0x78, 0x02, 0x04, 0x00, 0x7c, 0x02, 0x04,
   0x00, 0x62, 0x02, 0x04, 0x10, 0xe2, 0x01, 0x04, 0x28, 0x1c, 0x00, 0x02,
   0x44, 0x04, 0x02, 0x02, 0xa2, 0xf8, 0x01, 0x01, 0x91, 0x10, 0x80, 0x00,
   0x8a, 0xe0, 0x41, 0x00, 0x44, 0x0c, 0x41, 0x00, 0xb8, 0xf2, 0x40, 0x00,
   0x00, 0x43, 0x80, 0x00, 0x00, 0x43, 0xa2, 0x00, 0x00, 0xcd, 0xa1, 0x00,
   0x00, 0x71, 0xa0, 0x00, 0x00, 0x41, 0x90, 0x00, 0x80, 0xc0, 0x8f, 0x00,
   0x80, 0x80, 0x80, 0x01, 0x40, 0xe0, 0x83, 0x03, 0x20, 0x50, 0x40, 0x22,
   0x10, 0x50, 0x40, 0x64, 0x08, 0xe0, 0x7f, 0xf8};
