#define kaki1_bsd_width 32
#define kaki1_bsd_height 32
static unsigned char kaki1_bsd_bits[] = {
   0x00, 0x80, 0xe3, 0x00, 0x00, 0x40, 0x42, 0x01, 0x00, 0x20, 0x41, 0x02,
   0x00, 0x20, 0x41, 0x04, 0x00, 0x90, 0x3f, 0x04, 0x00, 0x10, 0x10, 0x04,
   0x00, 0xd0, 0x00, 0x02, 0x00, 0x28, 0x01, 0x02, 0x00, 0x28, 0x02, 0x05,
   0x00, 0x28, 0x02, 0x04, 0x00, 0x78, 0x02, 0x04, 0x00, 0x7c, 0x02, 0x04,
   0x00, 0x62, 0x02, 0x04, 0x10, 0xe2, 0x01, 0x04, 0x28, 0x1c, 0x00, 0x02,
   0x44, 0x04, 0x02, 0x02, 0x22, 0xf8, 0x01, 0x01, 0x11, 0x10, 0x80, 0x00,
   0x4a, 0xe1, 0x41, 0x00, 0x84, 0x02, 0x41, 0x00, 0x50, 0x82, 0x40, 0x00,
   0x20, 0x62, 0x80, 0x00, 0x10, 0x59, 0x82, 0x00, 0xe0, 0xc6, 0xa1, 0x00,
   0x00, 0x46, 0x90, 0x00, 0x00, 0x7a, 0x88, 0x00, 0x00, 0xc2, 0x87, 0x00,
   0x00, 0x82, 0x80, 0x01, 0x00, 0xe1, 0x83, 0x03, 0x80, 0x50, 0x40, 0x22,
   0x60, 0x50, 0x40, 0x64, 0x18, 0xe0, 0x7f, 0xf8};
