#define ltogi1_bsd_width 32
#define ltogi1_bsd_height 32
static unsigned char ltogi1_bsd_bits[] = {
   0x00, 0x60, 0x0c, 0x00, 0x00, 0x50, 0x14, 0x00, 0x00, 0x48, 0x12, 0x00,
   0x00, 0xf8, 0x11, 0x00, 0x00, 0x84, 0x10, 0x00, 0x00, 0x02, 0x10, 0x00,
   0x00, 0x07, 0x18, 0x00, 0x00, 0x05, 0x28, 0x00, 0x80, 0x08, 0x44, 0x00,
   0x80, 0x08, 0x40, 0x00, 0x80, 0x0b, 0x40, 0x00, 0xc0, 0x0b, 0x40, 0x00,
   0x20, 0x0b, 0x40, 0x00, 0x20, 0x06, 0x20, 0x00, 0xc0, 0x01, 0x20, 0x00,
   0x40, 0x10, 0x10, 0x00, 0x88, 0x0f, 0x08, 0x00, 0x12, 0x01, 0x04, 0x00,
   0x14, 0x3e, 0x04, 0x00, 0x09, 0x20, 0x04, 0x00, 0x16, 0x10, 0x08, 0x00,
   0x20, 0x0f, 0x08, 0x00, 0xc0, 0x08, 0x08, 0x00, 0x80, 0x84, 0x10, 0x00,
   0x80, 0x84, 0x10, 0x00, 0x00, 0x07, 0x11, 0x00, 0x00, 0x04, 0x31, 0x00,
   0x00, 0x02, 0xf9, 0x20, 0xc0, 0x01, 0xde, 0x43, 0x20, 0x80, 0x23, 0xfe,
   0x20, 0xc0, 0x20, 0x40, 0xc0, 0x3f, 0x1f, 0x20};
