#define ltogi2_bsd_width 32
#define ltogi2_bsd_height 32
static unsigned char ltogi2_bsd_bits[] = {
   0x00, 0x70, 0x1c, 0x00, 0x00, 0x48, 0x28, 0x00, 0x00, 0x24, 0x48, 0x00,
   0x00, 0x24, 0x88, 0x00, 0x00, 0xf2, 0x87, 0x00, 0x00, 0x02, 0x82, 0x00,
   0x00, 0x1a, 0x40, 0x00, 0x00, 0x25, 0x40, 0x00, 0x00, 0x45, 0xa0, 0x00,
   0x00, 0x45, 0x80, 0x00, 0x00, 0x4f, 0x80, 0x00, 0x80, 0x4f, 0x80, 0x00,
   0x40, 0x4c, 0x80, 0x00, 0x40, 0x3c, 0x80, 0x00, 0x80, 0x03, 0x40, 0x00,
   0x80, 0x40, 0x40, 0x00, 0x00, 0x3f, 0x20, 0x00, 0x00, 0x02, 0x10, 0x00,
   0x00, 0x3c, 0x08, 0x00, 0x00, 0x20, 0x08, 0x00, 0x00, 0x10, 0x08, 0x70,
   0x00, 0x10, 0x10, 0x60, 0x30, 0x08, 0x10, 0x50, 0x40, 0x48, 0x10, 0x08,
   0xf8, 0x3f, 0x20, 0x06, 0x40, 0x04, 0xe4, 0x03, 0x30, 0x04, 0xe2, 0x01,
   0x80, 0xcf, 0x41, 0x00, 0x40, 0x30, 0x40, 0x00, 0x40, 0xc0, 0x43, 0x00,
   0x80, 0x7f, 0x20, 0x00, 0x00, 0x80, 0x1f, 0x00};
