#define mati3_bsd_width 32
#define mati3_bsd_height 32
static unsigned char mati3_bsd_bits[] = {
   0x08, 0x30, 0x00, 0x00, 0x08, 0x18, 0xe0, 0x00, 0x10, 0x14, 0x40, 0x01,
   0x21, 0xe2, 0x4f, 0x02, 0x22, 0x02, 0x30, 0x04, 0x12, 0x02, 0x00, 0x04,
   0x09, 0x06, 0x00, 0x02, 0x09, 0x09, 0x07, 0x01, 0x12, 0x9d, 0x80, 0x00,
   0xa0, 0x22, 0x80, 0x00, 0x80, 0xfe, 0x81, 0x00, 0x80, 0x83, 0x82, 0x00,
   0x80, 0x00, 0x84, 0x00, 0x00, 0x01, 0x44, 0x00, 0x00, 0x7a, 0x44, 0x00,
   0x00, 0x86, 0x22, 0x00, 0xc0, 0x05, 0x91, 0x03, 0x20, 0xfa, 0x70, 0x04,
   0x20, 0x00, 0x00, 0x04, 0x40, 0x00, 0x00, 0x04, 0xa0, 0x01, 0x00, 0x03,
   0x10, 0x02, 0x80, 0x00, 0x08, 0x02, 0x40, 0x00, 0x04, 0x02, 0x20, 0x00,
   0x00, 0x02, 0x20, 0x00, 0x00, 0x02, 0x60, 0x00, 0x00, 0x02, 0xe0, 0x00,
   0x00, 0x02, 0x20, 0x03, 0x00, 0x82, 0x20, 0x4c, 0x00, 0x42, 0x21, 0xf0,
   0x00, 0x22, 0x11, 0xe0, 0x00, 0x1c, 0x0e, 0x00};
