#define rtogi1_bsd_width 32
#define rtogi1_bsd_height 32
static char rtogi1_bsd_bits[] = {
 0x00,0x30,0x06,0x00,0x00,0x28,0x0a,0x00,0x00,0x48,0x12,0x00,0x00,0x88,0x1f,
 0x00,0x00,0x08,0x21,0x00,0x00,0x08,0x40,0x00,0x00,0x18,0xe0,0x00,0x00,0x14,
 0xa0,0x00,0x00,0x22,0x10,0x01,0x00,0x02,0x10,0x01,0x00,0x02,0xd0,0x01,0x00,
 0x02,0xd0,0x03,0x00,0x02,0xd0,0x04,0x00,0x04,0x60,0x04,0x00,0x04,0x80,0x03,
 0x00,0x08,0x08,0x02,0x00,0x10,0xf0,0x11,0x00,0x20,0x80,0x48,0x00,0x20,0x7c,
 0x28,0x00,0x20,0x04,0x90,0x00,0x10,0x08,0x68,0x00,0x10,0xf0,0x04,0x00,0x10,
 0x10,0x03,0x00,0x08,0x21,0x01,0x00,0x08,0x21,0x01,0x00,0x88,0xe0,0x00,0x00,
 0x8c,0x20,0x00,0x04,0x9f,0x40,0x00,0xc2,0x7b,0x80,0x03,0x7f,0xc4,0x01,0x04,
 0x02,0x04,0x03,0x04,0x04,0xf8,0xfc,0x03};
