#define upleft1_bsd_width 32
#define upleft1_bsd_height 32
static char upleft1_bsd_bits[] = {
 0x00,0x00,0x18,0x00,0x00,0x06,0x30,0x00,0x00,0x05,0x50,0x00,0x80,0x02,0x90,
 0x00,0x40,0xe2,0x8f,0x00,0x40,0x1a,0x90,0x00,0x40,0x0c,0x20,0x01,0x40,0x00,
 0xc0,0x00,0x40,0x00,0xc0,0x00,0x80,0x00,0x80,0x00,0x80,0x00,0x80,0x00,0x00,
 0x01,0x80,0x00,0x00,0x01,0x80,0x00,0x80,0x00,0x80,0x00,0x80,0x00,0x40,0x00,
 0x80,0x00,0x40,0x00,0x00,0x01,0x20,0x00,0x00,0x02,0x10,0x00,0x00,0x0c,0x08,
 0x00,0x20,0x10,0x08,0x00,0x48,0x08,0x30,0x00,0x50,0x04,0x50,0x00,0x24,0x02,
 0x90,0x00,0x58,0x01,0xa0,0x00,0x80,0x10,0x60,0x00,0x80,0x08,0x20,0x20,0x00,
 0x05,0x20,0x40,0x00,0x06,0x28,0xf0,0x00,0x08,0x38,0x4f,0x00,0x08,0xf4,0x20,
 0x00,0x10,0x0c,0x00,0x00,0xe0,0x03,0x00};
