#define upright1_bsd_width 32
#define upright1_bsd_height 32
static unsigned char upright1_bsd_bits[] = {
   0x00, 0x18, 0x00, 0x00, 0x00, 0x0c, 0x60, 0x00, 0x00, 0x0a, 0xa0, 0x00,
   0x00, 0x09, 0x40, 0x01, 0x00, 0xf1, 0x47, 0x02, 0x00, 0x09, 0x58, 0x02,
   0x80, 0x04, 0x30, 0x02, 0x00, 0x03, 0x00, 0x02, 0x00, 0x03, 0x00, 0x02,
   0x00, 0x01, 0x00, 0x01, 0x00, 0x01, 0x00, 0x01, 0x00, 0x01, 0x80, 0x00,
   0x00, 0x01, 0x80, 0x00, 0x00, 0x01, 0x00, 0x01, 0x00, 0x02, 0x00, 0x01,
   0x00, 0x02, 0x00, 0x01, 0x00, 0x04, 0x80, 0x00, 0x00, 0x08, 0x40, 0x00,
   0x00, 0x10, 0x30, 0x00, 0x00, 0x10, 0x08, 0x04, 0x00, 0x0c, 0x10, 0x12,
   0x00, 0x0a, 0x20, 0x0a, 0x00, 0x09, 0x40, 0x24, 0x00, 0x05, 0x80, 0x1a,
   0x00, 0x06, 0x08, 0x01, 0x04, 0x04, 0x10, 0x01, 0x02, 0x04, 0xa0, 0x00,
   0x0f, 0x14, 0x60, 0x00, 0xf2, 0x1c, 0x10, 0x00, 0x04, 0x2f, 0x10, 0x00,
   0x00, 0x30, 0x08, 0x00, 0x00, 0xc0, 0x07, 0x00};
