#define utogi1_bsd_width 32
#define utogi1_bsd_height 32
static unsigned char utogi1_bsd_bits[] = {
   0x00, 0x06, 0x30, 0x00, 0x00, 0x05, 0x50, 0x00, 0x80, 0x02, 0xa0, 0x00,
   0x40, 0x02, 0x20, 0x01, 0x40, 0xfa, 0x2f, 0x01, 0x40, 0x04, 0x10, 0x01,
   0x40, 0x00, 0x00, 0x01, 0x40, 0x00, 0x00, 0x01, 0x80, 0x00, 0x80, 0x00,
   0x80, 0x00, 0x80, 0x00, 0x00, 0x01, 0x40, 0x00, 0x00, 0x01, 0x40, 0x00,
   0x00, 0x01, 0x40, 0x00, 0x00, 0x01, 0x40, 0x00, 0x00, 0x02, 0x20, 0x00,
   0x00, 0x04, 0x10, 0x00, 0x00, 0x0c, 0x18, 0x00, 0x00, 0x02, 0x20, 0x00,
   0x00, 0x01, 0x40, 0x00, 0x00, 0x01, 0x40, 0x00, 0x80, 0x00, 0x50, 0x00,
   0x80, 0x00, 0xa0, 0x00, 0x80, 0x04, 0x20, 0x01, 0x00, 0x07, 0x20, 0x02,
   0x00, 0x84, 0x20, 0x00, 0x00, 0xc4, 0x20, 0x00, 0x00, 0xf8, 0x41, 0x00,
   0x00, 0x40, 0x41, 0x00, 0x00, 0x40, 0x3e, 0x00, 0x00, 0x28, 0x00, 0x00,
   0x00, 0x18, 0x00, 0x00, 0x00, 0x38, 0x00, 0x00};
