#define dwleft1_tora_width 32
#define dwleft1_tora_height 32
static char dwleft1_tora_bits[] = {
   0x00, 0x00, 0x00, 0x00, 0x00, 0x00, 0x00, 0x03, 0x00, 0x00, 0xe0, 0x0c,
   0x00, 0x00, 0x3c, 0x08, 0x00, 0x80, 0x07, 0x0b, 0x00, 0x40, 0xf0, 0x06,
   0x00, 0x30, 0xc0, 0x00, 0x00, 0x08, 0x00, 0x03, 0x00, 0x04, 0x00, 0x06,
   0x00, 0x02, 0x20, 0x04, 0x30, 0x02, 0x10, 0x04, 0x38, 0x01, 0x08, 0x04,
   0xd8, 0x0f, 0x06, 0x04, 0x28, 0x30, 0x0f, 0x04, 0x10, 0xf0, 0x0f, 0x02,
   0x08, 0xf0, 0x0f, 0x02, 0x28, 0xf9, 0x0f, 0x02, 0x28, 0xe1, 0x07, 0x02,
   0x04, 0x80, 0x05, 0x02, 0x74, 0x00, 0x08, 0x02, 0x24, 0x22, 0x11, 0x01,
   0x58, 0x11, 0xb9, 0x00, 0x90, 0x19, 0x8f, 0x00, 0xb0, 0x94, 0x41, 0x00,
   0xb0, 0x63, 0x41, 0x00, 0x60, 0xf6, 0x25, 0x00, 0x00, 0x8c, 0x3f, 0x00,
   0x00, 0x00, 0x00, 0x00, 0x00, 0x00, 0x00, 0x00, 0x00, 0x00, 0x00, 0x00,
   0x00, 0x00, 0x00, 0x00, 0x00, 0x00, 0x00, 0x00};
