#define noname_width 32
#define noname_height 32
static char noname_bits[] = {
 0x00,0x70,0x00,0x00,0x00,0x88,0x00,0x00,0x1c,0x44,0x00,0x00,0x36,0xa4,0x00,
 0x00,0x22,0x24,0x01,0x00,0x42,0x44,0x02,0x00,0x8c,0xc5,0x03,0x00,0x18,0x0e,
 0x06,0x00,0x10,0x18,0x18,0x00,0x10,0x00,0x20,0x00,0x10,0x00,0x40,0x00,0x20,
 0x80,0x81,0x00,0x20,0xc0,0x83,0x38,0x40,0xc0,0x07,0x79,0x80,0xc1,0xe7,0x77,
 0x00,0xc6,0x1f,0xe8,0x00,0x84,0x1f,0xd0,0x00,0x88,0x1f,0x60,0x00,0x08,0x3f,
 0x20,0x00,0x10,0x3f,0x29,0x00,0x20,0x1c,0x49,0x00,0x20,0x00,0x40,0x00,0x40,
 0x02,0x4e,0x00,0x80,0x4c,0x34,0x00,0x00,0x91,0x1a,0x00,0x00,0x32,0x11,0x00,
 0x00,0x44,0x35,0x00,0x00,0xc4,0x4a,0x00,0x00,0x08,0x87,0x00,0x00,0xa8,0xd5,
 0x00,0x00,0xf0,0x78,0x00,0x00,0x00,0x00};
