#define noname_width 32
#define noname_height 32
static char noname_bits[] = {
 0x00,0x00,0x00,0x00,0xc0,0x00,0x00,0x00,0x30,0x07,0x00,0x00,0x10,0x3c,0x00,
 0x00,0xd0,0xe0,0x01,0x00,0x60,0x0f,0x02,0x00,0x00,0x03,0x0c,0x00,0xc0,0x00,
 0x10,0x00,0x60,0x00,0x20,0x00,0x20,0x04,0x40,0x00,0x20,0x08,0x40,0x0c,0x20,
 0x10,0x80,0x1c,0x20,0x60,0xf0,0x1b,0x20,0xf0,0x0c,0x14,0x40,0xf0,0x0f,0x08,
 0x40,0xf0,0x0f,0x10,0x40,0xf0,0x9f,0x14,0x40,0xe0,0x87,0x14,0x40,0xa0,0x01,
 0x20,0x40,0x10,0x00,0x2e,0x80,0x88,0x44,0x24,0x00,0x9d,0x88,0x1a,0x00,0xf1,
 0x98,0x09,0x00,0x82,0x29,0x0d,0x00,0x82,0xc6,0x0d,0x00,0xa4,0x6f,0x06,0x00,
 0xfc,0x31,0x00,0x00,0x00,0x00,0x00,0x00,0x00,0x00,0x00,0x00,0x00,0x00,0x00,
 0x00,0x00,0x00,0x00,0x00,0x00,0x00,0x00};
