#define noname_width 32
#define noname_height 32
static char noname_bits[] = {
 0x00,0x00,0x00,0x00,0x00,0x00,0x00,0x00,0x00,0x00,0x00,0x00,0x00,0x00,0x00,
 0x00,0x00,0x00,0x00,0x00,0x00,0x00,0x00,0x00,0x00,0x00,0x00,0x00,0xe0,0x07,
 0x00,0x00,0x10,0x0c,0x00,0x60,0x08,0x1f,0x00,0x90,0x2c,0x1f,0x00,0x90,0x23,
 0x1f,0x00,0x90,0x01,0x3f,0xff,0x90,0x01,0xff,0x00,0x91,0x0e,0x3f,0x00,0x8a,
 0x90,0x3f,0x00,0x44,0x88,0x1f,0x00,0x20,0x64,0x0f,0x10,0x18,0x98,0x00,0x08,
 0x08,0x00,0x01,0x08,0x08,0x00,0x45,0x08,0x08,0x00,0x47,0x10,0x08,0x00,0xc9,
 0x7f,0x04,0x00,0x45,0x88,0x04,0xc0,0x24,0x84,0x04,0x20,0x23,0x62,0x04,0xa0,
 0x10,0x1a,0x04,0xc0,0x12,0x54,0x04,0x00,0x0f,0xe0,0x03,0x00,0x00,0x00,0x00,
 0x00,0x00,0x00,0x00,0x00,0x00,0x00,0x00};
