#define right2_tora_width 32
#define right2_tora_height 32
static char right2_tora_bits[] = {
   0x00, 0x00, 0x00, 0x00, 0x00, 0x00, 0x00, 0x00, 0x00, 0x00, 0x00, 0x00,
   0x00, 0x00, 0x00, 0x00, 0x00, 0x00, 0x00, 0x00, 0x0c, 0x00, 0x00, 0x00,
   0x12, 0x00, 0x00, 0x00, 0x12, 0x00, 0xc0, 0x07, 0x24, 0x00, 0x6e, 0x08,
   0x44, 0x00, 0xff, 0x10, 0x88, 0x0f, 0xff, 0x34, 0x50, 0x70, 0xff, 0xc4,
   0x10, 0x80, 0x7e, 0x80, 0x08, 0x00, 0x3b, 0x80, 0x08, 0x00, 0x00, 0x48,
   0x08, 0x00, 0x00, 0x31, 0x08, 0x00, 0x00, 0x53, 0x04, 0x00, 0x80, 0x5c,
   0x04, 0x00, 0xe0, 0x51, 0x03, 0x02, 0x00, 0x21, 0x21, 0x03, 0x00, 0x03,
   0xf1, 0x0e, 0x18, 0x04, 0xe9, 0xf9, 0x2f, 0x38, 0x17, 0x00, 0xdc, 0x40,
   0x0e, 0x00, 0x20, 0x63, 0x00, 0x00, 0xc0, 0x3c, 0x00, 0x00, 0x00, 0x00,
   0x00, 0x00, 0x00, 0x00, 0x00, 0x00, 0x00, 0x00, 0x00, 0x00, 0x00, 0x00,
   0x00, 0x00, 0x00, 0x00, 0x00, 0x00, 0x00, 0x00};
