#define rtogi2_tora_width 32
#define rtogi2_tora_height 32
static char rtogi2_tora_bits[] = {
   0x00, 0x00, 0x00, 0x00, 0x00, 0x00, 0x00, 0x00, 0x00, 0x00, 0x00, 0x00,
   0x00, 0x00, 0x00, 0x40, 0x00, 0x00, 0x00, 0x20, 0x00, 0x00, 0x00, 0x10,
   0x18, 0x00, 0xc0, 0x43, 0x24, 0x00, 0x60, 0x04, 0x22, 0x00, 0x30, 0x08,
   0x11, 0x00, 0x78, 0x70, 0x09, 0x00, 0xf8, 0x44, 0x09, 0x00, 0x7c, 0x40,
   0x89, 0xff, 0x7e, 0x40, 0x51, 0x00, 0x7f, 0x20, 0x22, 0x00, 0xfe, 0x10,
   0x04, 0x00, 0xfe, 0x08, 0x18, 0x00, 0xfc, 0x10, 0x10, 0x08, 0x78, 0x26,
   0x10, 0x10, 0x30, 0x19, 0x10, 0x10, 0x80, 0x00, 0x10, 0x10, 0xa0, 0x00,
   0x10, 0x08, 0xe2, 0x00, 0x20, 0xfe, 0x23, 0x07, 0x20, 0x11, 0x44, 0x08,
   0x20, 0xe1, 0x88, 0x10, 0x20, 0x06, 0x11, 0x17, 0x20, 0x18, 0x21, 0x08,
   0x20, 0xea, 0x40, 0x0a, 0xc0, 0x07, 0x80, 0x07, 0x00, 0x00, 0x00, 0x00,
   0x00, 0x00, 0x00, 0x00, 0x00, 0x00, 0x00, 0x00};
