#define rtogi1_tora_width 32
#define rtogi1_tora_height 32
static char rtogi1_tora_bits[] = {
   0x00, 0x00, 0x00, 0x00, 0x00, 0x00, 0x00, 0x00, 0x00, 0x00, 0x00, 0x00,
   0x00, 0x00, 0x00, 0x00, 0x00, 0x00, 0x00, 0x00, 0x00, 0x00, 0x00, 0x00,
   0x00, 0x00, 0x00, 0x00, 0x00, 0x00, 0xe0, 0x07, 0x06, 0x00, 0x30, 0x08,
   0x09, 0x00, 0xf8, 0x10, 0x09, 0x00, 0xf8, 0x34, 0x09, 0x00, 0xf8, 0xc4,
   0x09, 0xff, 0xfc, 0x80, 0x89, 0x00, 0xff, 0x80, 0x51, 0x00, 0xfc, 0x70,
   0x22, 0x00, 0xfc, 0x09, 0x04, 0x00, 0xf8, 0x11, 0x18, 0x08, 0xf0, 0x26,
   0x10, 0x10, 0x00, 0x19, 0x10, 0x10, 0x80, 0x00, 0x10, 0x10, 0xa2, 0x00,
   0x10, 0x08, 0xe2, 0x00, 0x20, 0xfe, 0x93, 0x00, 0x20, 0x11, 0xa2, 0x00,
   0x20, 0x21, 0x24, 0x03, 0x20, 0x46, 0xc4, 0x04, 0x20, 0x58, 0x08, 0x05,
   0x20, 0x2a, 0x48, 0x03, 0xc0, 0x07, 0xf0, 0x00, 0x00, 0x00, 0x00, 0x00,
   0x00, 0x00, 0x00, 0x00, 0x00, 0x00, 0x00, 0x00};
