#define dwleft2_sakura_width 32
#define dwleft2_sakura_height 32
static unsigned char dwleft2_sakura_bits[] = {
   0x80, 0x7f, 0xfb, 0x03, 0x80, 0x8f, 0x70, 0x02, 0x80, 0x43, 0x20, 0x02,
   0x00, 0x01, 0x46, 0x01, 0x80, 0x00, 0x48, 0x01, 0x80, 0x20, 0x92, 0x01,
   0x80, 0xa0, 0x94, 0x02, 0x80, 0x92, 0x94, 0x02, 0x80, 0x12, 0x95, 0x02,
   0x00, 0x15, 0x29, 0x02, 0x00, 0x02, 0x10, 0x01, 0x00, 0x93, 0x10, 0x01,
   0x00, 0x93, 0x10, 0x01, 0x00, 0x03, 0x90, 0x00, 0x00, 0x05, 0x88, 0x04,
   0x00, 0x0a, 0x60, 0x02, 0x00, 0x12, 0xfe, 0x01, 0x00, 0xf0, 0x7b, 0x02,
   0x00, 0x70, 0x7b, 0x02, 0x00, 0x90, 0xf9, 0x01, 0x00, 0x90, 0x00, 0x02,
   0x00, 0x68, 0x02, 0x02, 0x00, 0x08, 0x00, 0x01, 0x00, 0x08, 0x80, 0x00,
   0x00, 0xd0, 0x61, 0x00, 0x00, 0xe0, 0x3f, 0x00, 0x00, 0x80, 0x3e, 0x00,
   0x00, 0x00, 0x2f, 0x00, 0x00, 0x00, 0x30, 0x00, 0x00, 0x00, 0x00, 0x00,
   0x00, 0x00, 0x00, 0x00, 0x00, 0x00, 0x00, 0x00};
