#define kaki2_sakura_width 32
#define kaki2_sakura_height 32
static unsigned char kaki2_sakura_bits[] = {
   0x00, 0x00, 0x00, 0x00, 0x00, 0x00, 0x00, 0x00, 0x00, 0x00, 0x00, 0x00,
   0x00, 0x00, 0x00, 0x00, 0x00, 0x00, 0x00, 0x00, 0xc0, 0xc1, 0x06, 0x07,
   0x40, 0x1f, 0xf1, 0x05, 0x40, 0x8e, 0xe0, 0x04, 0x80, 0x04, 0x4c, 0x02,
   0x80, 0x02, 0x90, 0x02, 0x80, 0x02, 0x90, 0x02, 0x00, 0x81, 0x24, 0x01,
   0x00, 0x81, 0x28, 0x01, 0x00, 0x49, 0x2a, 0x01, 0x20, 0x49, 0x2a, 0x01,
   0x20, 0x55, 0x34, 0x01, 0x20, 0x05, 0x20, 0x01, 0x20, 0x49, 0x24, 0x01,
   0x20, 0x4a, 0xa4, 0x00, 0x40, 0x0a, 0xa0, 0x00, 0x40, 0x12, 0x90, 0x00,
   0x80, 0x34, 0x58, 0x00, 0x00, 0xf3, 0x9f, 0x00, 0x00, 0xb9, 0x3b, 0x01,
   0x80, 0x38, 0x39, 0x02, 0x80, 0x78, 0x38, 0x02, 0x00, 0x79, 0x3c, 0x01,
   0x00, 0x4a, 0xbc, 0x00, 0x00, 0xcc, 0x67, 0x00, 0x00, 0x70, 0x24, 0x00,
   0x00, 0x40, 0x18, 0x00, 0x00, 0x40, 0x00, 0x00};
