#define ltogi1_sakura_width 32
#define ltogi1_sakura_height 32
static unsigned char ltogi1_sakura_bits[] = {
   0x00, 0x00, 0x00, 0x00, 0x60, 0x04, 0x00, 0x00, 0x88, 0xed, 0x00, 0x00,
   0x04, 0x0c, 0x01, 0x00, 0x04, 0x1c, 0x02, 0x00, 0x22, 0x18, 0x04, 0x00,
   0x12, 0x08, 0x04, 0x00, 0x92, 0x01, 0x08, 0x00, 0x52, 0x02, 0x08, 0x00,
   0x52, 0x02, 0x08, 0x00, 0xe4, 0x03, 0x08, 0x00, 0xc8, 0x03, 0x08, 0x00,
   0xa8, 0x07, 0x06, 0x00, 0xa4, 0x07, 0x02, 0x00, 0x84, 0xc7, 0x01, 0x00,
   0x88, 0x4f, 0x00, 0x00, 0x10, 0x2f, 0x00, 0x00, 0xe0, 0x3f, 0x30, 0x00,
   0x80, 0x2f, 0x0c, 0x00, 0x80, 0x2f, 0x02, 0x00, 0x80, 0x46, 0x01, 0x00,
   0x80, 0x80, 0x00, 0x00, 0x40, 0x00, 0x01, 0x00, 0x20, 0x00, 0x06, 0x00,
   0x10, 0x00, 0x08, 0x00, 0x08, 0x00, 0x04, 0x00, 0x10, 0x00, 0x02, 0x00,
   0x60, 0x80, 0x01, 0x00, 0x80, 0x7f, 0x00, 0x00, 0x00, 0x1f, 0x00, 0x00,
   0x00, 0x1d, 0x00, 0x00, 0x00, 0x1f, 0x00, 0x00};
