#define ltogi2_sakura_width 32
#define ltogi2_sakura_height 32
static unsigned char ltogi2_sakura_bits[] = {
   0x60, 0x04, 0x00, 0x00, 0x88, 0xed, 0x00, 0x00, 0x04, 0x0c, 0x01, 0x00,
   0x04, 0x1c, 0x02, 0x00, 0x22, 0x18, 0x04, 0x00, 0x12, 0x08, 0x04, 0x00,
   0x12, 0x01, 0x08, 0x00, 0x52, 0x01, 0x08, 0x00, 0x52, 0x01, 0x08, 0x00,
   0xa4, 0x01, 0x08, 0x00, 0x08, 0x01, 0x08, 0x00, 0x28, 0x09, 0x06, 0x00,
   0x24, 0x09, 0x02, 0x00, 0x04, 0xc9, 0x01, 0x00, 0x1c, 0x49, 0x08, 0x00,
   0xf2, 0x25, 0x04, 0x00, 0xf2, 0x3f, 0x04, 0x00, 0xfc, 0x2f, 0x02, 0x00,
   0xe0, 0x2f, 0x02, 0x00, 0x80, 0x4f, 0x01, 0x00, 0x80, 0x80, 0x00, 0x00,
   0x40, 0x00, 0x01, 0x00, 0x20, 0x00, 0x06, 0x00, 0x10, 0x00, 0x08, 0x00,
   0x08, 0x00, 0x04, 0x00, 0x10, 0x00, 0x02, 0x00, 0x60, 0x80, 0x01, 0x00,
   0x80, 0x7f, 0x00, 0x00, 0x00, 0x1f, 0x00, 0x00, 0x00, 0x1f, 0x00, 0x00,
   0x00, 0x0d, 0x00, 0x00, 0x00, 0x07, 0x00, 0x00};
