#define right2_sakura_width 32
#define right2_sakura_height 32
static unsigned char right2_sakura_bits[] = {
   0x00, 0x00, 0x20, 0x06, 0x00, 0x00, 0xb7, 0x11, 0x00, 0x80, 0x30, 0x20,
   0x00, 0x40, 0x38, 0x20, 0x00, 0x20, 0x18, 0x44, 0x00, 0x20, 0x10, 0x48,
   0x00, 0x10, 0x80, 0x48, 0x00, 0x10, 0x80, 0x4a, 0x00, 0x10, 0x80, 0x4a,
   0x00, 0x10, 0x80, 0x25, 0x00, 0x10, 0x80, 0x10, 0x00, 0x60, 0x90, 0x14,
   0x00, 0x40, 0x90, 0x24, 0x00, 0x80, 0x93, 0x20, 0x00, 0x00, 0x92, 0x10,
   0x00, 0x00, 0xa4, 0x08, 0x00, 0x00, 0x7b, 0x07, 0xe0, 0x80, 0xfb, 0x00,
   0x00, 0x81, 0xfb, 0x07, 0x00, 0x7e, 0xf0, 0x09, 0x00, 0x04, 0xe0, 0x09,
   0x00, 0x04, 0xc0, 0x07, 0x00, 0x04, 0x00, 0x04, 0x00, 0x08, 0x00, 0x02,
   0x00, 0x10, 0x00, 0x01, 0x00, 0x70, 0xc0, 0x01, 0x00, 0xf8, 0xe3, 0x00,
   0x00, 0xfc, 0xbc, 0x00, 0x00, 0x7c, 0x40, 0x00, 0x00, 0x28, 0x00, 0x00,
   0x00, 0x10, 0x00, 0x00, 0x00, 0x00, 0x00, 0x00};
