#define rtogi1_sakura_width 32
#define rtogi1_sakura_height 32
static unsigned char rtogi1_sakura_bits[] = {
   0x00, 0x00, 0x00, 0x00, 0x00, 0x00, 0x40, 0x0c, 0x00, 0x00, 0x6e, 0x23,
   0x00, 0x00, 0x61, 0x40, 0x00, 0x80, 0x70, 0x40, 0x00, 0x40, 0x30, 0x88,
   0x00, 0x40, 0x20, 0x90, 0x00, 0x20, 0x00, 0x93, 0x00, 0x20, 0x80, 0x94,
   0x00, 0x20, 0x80, 0x94, 0x00, 0x20, 0x80, 0x4f, 0x00, 0x20, 0x80, 0x27,
   0x00, 0xc0, 0xc0, 0x2b, 0x00, 0x80, 0xc0, 0x4b, 0x00, 0x00, 0xc7, 0x43,
   0x00, 0x00, 0xe4, 0x23, 0x00, 0x00, 0xe8, 0x11, 0x00, 0x18, 0xf8, 0x0f,
   0x00, 0x60, 0xe8, 0x03, 0x00, 0x80, 0xe8, 0x03, 0x00, 0x00, 0xc5, 0x02,
   0x00, 0x00, 0x02, 0x02, 0x00, 0x00, 0x01, 0x04, 0x00, 0xc0, 0x00, 0x08,
   0x00, 0x20, 0x00, 0x10, 0x00, 0x40, 0x00, 0x20, 0x00, 0x80, 0x00, 0x10,
   0x00, 0x00, 0x03, 0x0c, 0x00, 0x00, 0xfc, 0x03, 0x00, 0x00, 0xf0, 0x01,
   0x00, 0x00, 0x70, 0x01, 0x00, 0x00, 0xf0, 0x01};
