#define upleft2_sakura_width 32
#define upleft2_sakura_height 32
static unsigned char upleft2_sakura_bits[] = {
   0x00, 0x00, 0x00, 0x00, 0x00, 0x00, 0x00, 0x00, 0x80, 0xbf, 0xfd, 0x03,
   0x80, 0x1f, 0xe2, 0x03, 0x80, 0x0f, 0xc0, 0x03, 0x00, 0x07, 0x80, 0x01,
   0x80, 0x07, 0x00, 0x01, 0x80, 0x03, 0x00, 0x01, 0x80, 0x00, 0x00, 0x02,
   0x80, 0x00, 0x00, 0x02, 0x80, 0x00, 0x00, 0x02, 0x00, 0x01, 0x00, 0x02,
   0x00, 0x01, 0x00, 0x02, 0x00, 0x01, 0x00, 0x02, 0x00, 0x09, 0x80, 0x01,
   0x00, 0x09, 0x80, 0x00, 0x00, 0x19, 0x60, 0x00, 0x00, 0x3a, 0x30, 0x00,
   0x00, 0x64, 0x08, 0x00, 0x00, 0xf8, 0x8f, 0x01, 0x00, 0xe4, 0x4e, 0x00,
   0x00, 0xe4, 0x7e, 0x00, 0x00, 0x7c, 0x96, 0x00, 0x00, 0x04, 0x08, 0x03,
   0x00, 0x04, 0x04, 0x06, 0x00, 0x08, 0xc0, 0x03, 0x00, 0x18, 0xe0, 0x01,
   0x00, 0x38, 0xf0, 0x01, 0x00, 0x70, 0xc8, 0x01, 0x00, 0x80, 0x07, 0x00,
   0x00, 0x00, 0x00, 0x00, 0x00, 0x00, 0x00, 0x00};
